<?xml version="1.0" encoding="utf-8"?>
<!-- Generator: Adobe Illustrator 23.0.1, SVG Export Plug-In . SVG Version: 6.00 Build 0)  -->
<svg version="1.1" id="Camada_1" xmlns="http://www.w3.org/2000/svg" xmlns:xlink="http://www.w3.org/1999/xlink" x="0px" y="0px"
	 viewBox="0 0 280 80" style="enable-background:new 0 0 280 80;" xml:space="preserve">
<style type="text/css">
	.st0{fill:#402311;}
	.st1{fill:#687032;}
	.st2{fill:#97B139;}
	.st3{fill:#070308;}
	.st4{fill:#80852D;}
	.st5{fill:#779235;}
	.st6{fill:#C2A226;}
	.st7{fill:#5B6F2F;}
</style>
<g>
	<g>
		<path class="st0" d="M14.04,45.65c3.18,0,5.48,0.2,6.92,0.58c1.44,0.39,2.47,0.86,3.09,1.39c1.37,1.18,2.06,3,2.06,5.45
			c0,1.83-0.98,3.57-2.95,5.21c2.5,1.27,3.76,3.62,3.76,7.07c0,2.69-0.88,4.69-2.65,6c-1.76,1.31-4.39,2.03-7.89,2.16H4.87
			l-0.4-3.35c0.35-0.46,1.09-0.9,2.22-1.33V50.37c-1.1-0.4-1.84-0.86-2.22-1.37l0.4-3.35H14.04z M14.6,50.05h-2.1v6.99h3.31
			c1.37,0,2.42-0.35,3.15-1.05c0.73-0.7,1.09-1.55,1.09-2.56s-0.26-1.77-0.77-2.28c-0.51-0.51-1.1-0.82-1.78-0.93
			C16.84,50.1,15.87,50.05,14.6,50.05z M16.1,61.43h-3.59v7.67h2.79c1.83,0,3.22-0.27,4.16-0.81c0.94-0.54,1.41-1.51,1.41-2.91
			c0-1.4-0.37-2.41-1.11-3.03C19.01,61.74,17.79,61.43,16.1,61.43z"/>
		<path class="st0" d="M53.85,73.83c-3.82,0-6.68-1.1-8.58-3.31c-1.9-2.21-2.85-5.78-2.85-10.72s1.04-8.59,3.13-10.94
			c2.09-2.36,5.06-3.53,8.92-3.53c3.86,0,6.74,1.05,8.64,3.15c1.9,2.1,2.85,5.61,2.85,10.54c0,4.93-1.06,8.63-3.19,11.1
			S57.67,73.83,53.85,73.83z M49.93,51.98c-0.97,1.4-1.45,3.84-1.45,7.31s0.51,6,1.53,7.59c1.02,1.59,2.43,2.38,4.22,2.38
			c1.79,0,3.18-0.75,4.18-2.24c1-1.49,1.49-3.98,1.49-7.45c0-6.46-1.94-9.69-5.81-9.69C52.29,49.88,50.9,50.58,49.93,51.98z"/>
		<path class="st0" d="M85.51,50.41c-0.81-0.35-2.02-0.53-3.63-0.53c-1.62,0-2.92,0.7-3.92,2.1c-1,1.4-1.49,3.85-1.49,7.35
			c0,3.5,0.48,5.98,1.43,7.45s2.38,2.2,4.26,2.2c2.88,0,5.46-0.43,7.75-1.29l1.45,3.59c-2.85,1.7-6.21,2.54-10.05,2.54
			c-3.85,0-6.63-1.09-8.34-3.27c-1.71-2.18-2.56-5.75-2.56-10.7s1.06-8.61,3.17-10.98c2.11-2.37,5.08-3.55,8.9-3.55
			c3.07,0,5.99,0.85,8.76,2.54c0,0.16,0,0.47,0,0.93s-0.09,1.24-0.28,2.34c-0.19,1.1-0.46,2.01-0.81,2.71h-3.84
			C85.94,53.12,85.67,51.97,85.51,50.41z"/>
		<path class="st0" d="M109.98,45.44l8.04,23.3c1.13,0.4,1.92,0.88,2.38,1.41l-0.4,3.35h-9.45l-0.4-3.35
			c0.32-0.43,0.97-0.83,1.94-1.21l-1.09-3.39h-8.08l-1.01,3.27c0.94,0.38,1.64,0.82,2.1,1.33l-0.4,3.35h-9.21l-0.4-3.35
			c0.48-0.62,1.39-1.13,2.71-1.53l7.75-23.18H109.98z M106.62,51.1c0,1.64-0.34,3.55-1.01,5.73l-1.58,5.01h5.77l-1.53-4.93
			c-0.62-1.88-0.97-3.59-1.05-5.13l-0.04-0.69H106.62z"/>
		<path class="st0" d="M149.79,58.28c0-1.08,0.09-2.75,0.28-5.01l0.08-0.97l-0.4-0.04c-0.62,2.29-1.16,4.1-1.62,5.45l-5.37,15.79
			h-5.37l-5.65-15.79c-0.51-1.21-0.97-2.72-1.37-4.52l-0.24-0.93l-0.4,0.04c0.24,2.4,0.36,4.39,0.36,5.98V68.9
			c1,0.38,1.74,0.88,2.22,1.49l-0.4,3.11h-7.91l-0.4-3.11c0.48-0.62,1.22-1.12,2.22-1.49V50.25c-1.1-0.4-1.87-0.9-2.3-1.49l0.4-3.11
			h9.21l5.9,16.27c0.75,1.78,1.24,3.41,1.45,4.88l0.12,0.69h0.57c0.11-1.64,0.59-3.5,1.45-5.57l5.61-16.27h9.04l0.4,3.11
			c-0.43,0.59-1.2,1.09-2.3,1.49v18.49c1.05,0.4,1.79,0.88,2.22,1.41l-0.4,3.35h-9.21l-0.4-3.31c0.43-0.54,1.17-1.01,2.22-1.41
			V58.28z"/>
		<path class="st0" d="M172.08,63.82h-1.82v4.76c1.96,0.43,3.19,0.96,3.67,1.57l-0.4,3.35h-10.9l-0.4-3.35
			c0.35-0.46,1.09-0.9,2.22-1.33V50.37c-1.1-0.4-1.84-0.86-2.22-1.37l0.4-3.35h10.7c3.74,0.05,6.53,0.73,8.38,2.04
			c1.84,1.31,2.77,3.63,2.77,6.96C184.47,60.76,180.34,63.82,172.08,63.82z M172.68,50.05h-2.42v9.37h2.71c1.83,0,3.2-0.36,4.1-1.09
			c0.9-0.73,1.35-1.99,1.35-3.78s-0.49-2.99-1.47-3.59C175.96,50.35,174.54,50.05,172.68,50.05z"/>
		<path class="st0" d="M207.85,73.51h-18.73l-0.4-3.35c0.35-0.46,1.09-0.9,2.22-1.33V50.37c-1.1-0.4-1.84-0.86-2.22-1.37l0.4-3.35
			h18.41v7.03l-2.99,0.36c-0.62-0.54-1.12-1.53-1.49-2.99h-6.3v6.94h5.61c0.32-0.81,0.66-1.37,1.01-1.7l2.54,0.28v7.19l-2.54,0.32
			c-0.35-0.27-0.69-0.83-1.01-1.7h-5.61v7.71h6.62c0.35-1.4,0.85-2.4,1.49-2.99l2.99,0.36V73.51z"/>
		<path class="st0" d="M222.34,45.65l0.4,3.35c-0.43,0.51-1.17,0.97-2.22,1.37v18.45c1.08,0.43,1.82,0.88,2.22,1.33l-0.4,3.35h-9.45
			l-0.4-3.35c0.35-0.46,1.09-0.9,2.22-1.33V50.37c-1.1-0.4-1.84-0.86-2.22-1.37l0.4-3.35H222.34z"/>
		<path class="st0" d="M249.2,53.8c0,1.83-0.57,3.37-1.72,4.6c-1.14,1.24-2.58,2.18-4.3,2.83c1.35,0.56,2.23,1.25,2.67,2.06
			l2.95,5.61c1.26,0.43,2.13,0.93,2.58,1.49l-0.4,3.11h-6.82l-4.64-9.89c-0.43-1-0.93-1.49-1.49-1.49h-2.63v6.46
			c1.96,0.43,3.19,0.96,3.67,1.57l-0.4,3.35h-10.9l-0.4-3.35c0.35-0.46,1.09-0.9,2.22-1.33V50.37c-1.1-0.4-1.84-0.86-2.22-1.37
			l0.4-3.35h10.3c3.77,0.05,6.57,0.66,8.4,1.82C248.28,48.62,249.2,50.73,249.2,53.8z M237.77,50.05h-2.38v7.67h2.3
			c1.83,0,3.2-0.28,4.1-0.83c0.9-0.55,1.35-1.54,1.35-2.97s-0.46-2.43-1.37-3.01C240.85,50.34,239.52,50.05,237.77,50.05z"/>
		<path class="st0" d="M265.79,73.83c-3.82,0-6.68-1.1-8.58-3.31c-1.9-2.21-2.85-5.78-2.85-10.72s1.04-8.59,3.13-10.94
			c2.09-2.36,5.06-3.53,8.92-3.53s6.74,1.05,8.64,3.15c1.9,2.1,2.85,5.61,2.85,10.54c0,4.93-1.06,8.63-3.19,11.1
			C272.59,72.59,269.61,73.83,265.79,73.83z M261.87,51.98c-0.97,1.4-1.45,3.84-1.45,7.31s0.51,6,1.54,7.59
			c1.02,1.59,2.43,2.38,4.22,2.38s3.18-0.75,4.18-2.24c1-1.49,1.49-3.98,1.49-7.45c0-6.46-1.94-9.69-5.81-9.69
			C264.23,49.88,262.84,50.58,261.87,51.98z"/>
	</g>
</g>
<path class="st0" d="M4.24,76.12c0,0,27.11-2.8,31.79-2.6s34.83,2.6,34.83,2.6l205.66-1.47c0,0,3.77-0.56,2.96,1.47
	c-0.81,2.03-55.99,1.49-55.99,1.49L4.24,77.68C4.24,77.68,2.72,77.08,4.24,76.12z"/>
<path class="st0" d="M30.3,74.14c0,0,1.64-27.51,1.29-29.02c-0.35-1.51,1.35-5.58-4.77-7.49c-0.65-0.2-2.86-1.91-5.34-1.17
	c-2.48,0.73-4.74-0.12-4.74-0.12s1.64-1.13,5.15-1.96c3.51-0.83,6.36,1.6,9.68,1.98s3.71-2.92,2.09-8.87
	c-0.26-0.94,2.66-0.41,2.88-0.41s0.39,9.73,1.09,10.07c0.7,0.34,2.65-0.95,5.89-2.06s3.04-3.99,3.04-3.99s1.79,4.97-1.99,5.91
	c-3.78,0.95-7.06,2.57-7.06,2.57s-1.42,36.18,3.37,35.33S30.3,74.14,30.3,74.14z"/>
<g>
	<path class="st1" d="M16.27,20.23c0,0,1.53,2.6,3.45,1.26l-0.01,0C19.05,19.25,16.27,20.23,16.27,20.23z"/>
	<path class="st1" d="M18.99,23.56c0,0,2.89,0.87,3.39-1.42l-0.01,0.01C20.36,20.95,18.99,23.56,18.99,23.56z"/>
	<path class="st1" d="M21.57,19.09c0,0-0.37,2.99,1.97,3.1l-0.01-0.01C24.38,20,21.57,19.09,21.57,19.09z"/>
</g>
<g>
	<g>
		<g>
			<path class="st0" d="M45.51,35.52c0.94,0.08,1.62,0.07,2.51,0.48c0.57,0.26,1.17,0.52,2.06,0.94c-0.39-0.36-0.75-0.6-1.31-0.88
				c-0.38-0.19-3.16-1.45-3.29-0.71c0.1,0-0.09,0.05-0.05,0.05"/>
		</g>
		<g>
			<path class="st2" d="M51.38,37.31c0,0-1.45,0.54-1.78-0.61l0.01,0C50.59,36.02,51.38,37.31,51.38,37.31z"/>
		</g>
		<g>
			<path class="st2" d="M49.22,37.77c0,0-1.43-0.58-0.9-1.66l0,0.01C49.51,36.28,49.22,37.77,49.22,37.77z"/>
		</g>
		<g>
			<path class="st2" d="M49.63,35.15c0,0-0.82,1.31-1.79,0.6l0.01,0C48.22,34.61,49.63,35.15,49.63,35.15z"/>
		</g>
	</g>
</g>
<path class="st0" d="M26.05,24.02c-1.14-0.77-1.9-1.41-3.29-1.77c-0.89-0.23-1.8-0.49-3.2-0.83c0.77-0.05,1.4,0.01,2.3,0.2
	c0.6,0.13,4.93,1.26,4.38,2.22c-0.11-0.09,0.06,0.14,0.01,0.11"/>
<path class="st0" d="M34.51,33.14c0,0,0.39-2.17-2.22-4.13c-2.87-2.17-4.52-1.94-5.88-4.31c-1.36-2.36-2.27-5.05-1.77-6.19
	c0,0-0.09,1.6,1.44,4.69c1.29,2.59,2.66,3.18,3.99,3.58c2.06,0.61,6.22,2.8,5.97,4.91C35.79,33.8,34.51,33.14,34.51,33.14z"/>
<path class="st3" d="M-1.74,10.17"/>
<path class="st4" d="M19.05,25.38c0,0-1.88,3.23,0.73,4.49l0-0.02C21.8,27.78,19.05,25.38,19.05,25.38z"/>
<path class="st5" d="M10.52,25.16c0,0,0.67,3.67,3.48,2.93l-0.01-0.01C14.17,25.19,10.52,25.16,10.52,25.16z"/>
<path class="st2" d="M27.92,16.35c0,0-3.01,5.17,1.17,7.2l0-0.03C32.33,20.2,27.92,16.35,27.92,16.35z"/>
<path class="st2" d="M40.96,28.32c0,0-3.01,5.17,1.17,7.2l0-0.03C45.36,32.17,40.96,28.32,40.96,28.32z"/>
<path class="st1" d="M40.61,21.58c0,0-5.8,1.48-4.3,5.89l0.02-0.02C40.96,27.42,40.61,21.58,40.61,21.58z"/>
<path class="st4" d="M22.91,28.65c0,0-1.2,5.86,3.41,6.45l-0.01-0.03C28.32,30.89,22.91,28.65,22.91,28.65z"/>
<path class="st4" d="M50.41,21.79c0,0-6.92,2.97-4.2,8.16l0.02-0.03C51.99,28.99,50.41,21.79,50.41,21.79z"/>
<path class="st4" d="M35.08,21.58c0,0-5.8,1.48-4.3,5.89l0.02-0.02C35.42,27.42,35.08,21.58,35.08,21.58z"/>
<path class="st2" d="M45.07,18.26c0,0-5.06,3.2-2.27,6.93l0.01-0.03C47.21,23.72,45.07,18.26,45.07,18.26z"/>
<path class="st4" d="M41.68,12.44c0,0-4.42,4.03-1.03,7.22l0-0.03C44.73,17.43,41.68,12.44,41.68,12.44z"/>
<path class="st5" d="M36.41,7.22c0,0-5.8,1.48-4.3,5.89l0.02-0.02C36.76,13.07,36.41,7.22,36.41,7.22z"/>
<path class="st4" d="M11.97,32.24c0,0,2.81,5.28,6.74,2.79l-0.03-0.01C17.57,30.52,11.97,32.24,11.97,32.24z"/>
<path class="st4" d="M12.56,18.77c0,0-1.2,5.86,3.41,6.45l-0.01-0.03C17.97,21.02,12.56,18.77,12.56,18.77z"/>
<path class="st5" d="M19.46,9.3c0,0-3.18,5.07,0.94,7.23l0-0.03C23.74,13.29,19.46,9.3,19.46,9.3z"/>
<path class="st4" d="M24.43,8.4c0,0-1.2,5.86,3.41,6.45l-0.01-0.03C29.84,10.64,24.43,8.4,24.43,8.4z"/>
<path class="st2" d="M11.36,12.91c0,0,0.68,5.95,5.25,5.06l-0.02-0.02C17.2,13.35,11.36,12.91,11.36,12.91z"/>
<path class="st5" d="M4.29,28.39c0,0-1.2,5.86,3.41,6.45l-0.01-0.03C9.7,30.63,4.29,28.39,4.29,28.39z"/>
<path class="st4" d="M11.97,41.1c0,0,5.98,0.13,5.73-4.51l-0.02,0.02C13.21,35.38,11.97,41.1,11.97,41.1z"/>
<path class="st5" d="M21.39,42.8c0,0,5.93-0.8,4.96-5.35l-0.02,0.02C21.72,36.96,21.39,42.8,21.39,42.8z"/>
<path class="st5" d="M55.15,29.65c0,0-7.18-2.29-8.52,3.42l0.03-0.01C51.62,36.13,55.15,29.65,55.15,29.65z"/>
<path class="st5" d="M57.22,15.49c0,0-5.97-0.42-5.94,4.24l0.02-0.02C55.71,21.15,57.22,15.49,57.22,15.49z"/>
<path class="st5" d="M48.6,12.02c0,0-4.26,0.82-3.37,4.07l0.01-0.02C48.59,16.26,48.6,12.02,48.6,12.02z"/>
<path class="st4" d="M41.2,7.97c0,0-5.8,1.48-4.3,5.89l0.02-0.02C41.55,13.82,41.2,7.97,41.2,7.97z"/>
<path class="st5" d="M28.84,2.92c0,0-3.28,5.01,0.8,7.25l0-0.03C33.05,7,28.84,2.92,28.84,2.92z"/>
<path class="st5" d="M27.37,28.91c0,0-0.65,3.16,1.84,3.47l-0.01-0.01C30.29,30.12,27.37,28.91,27.37,28.91z"/>
<path class="st5" d="M32.21,31.54c0,0-3.19,0.47-2.64,2.91l0.01-0.01C32.06,34.69,32.21,31.54,32.21,31.54z"/>
<path class="st5" d="M2.77,24.58c-2.31-1.43,2.81,5.28,6.74,2.79l-0.03-0.01C8.37,22.85,5.09,26.01,2.77,24.58z"/>
<path class="st4" d="M6.65,39.31c0,0,5.98,0.13,5.73-4.51l-0.02,0.02C7.88,33.58,6.65,39.31,6.65,39.31z"/>
<path class="st5" d="M14.67,28.53c0,0,0.67,3.67,3.48,2.93l-0.01-0.01C18.32,28.56,14.67,28.53,14.67,28.53z"/>
<path class="st5" d="M23.27,24.04c0,0-1.94,2.57,0.17,3.92l0-0.02C25.38,26.38,23.27,24.04,23.27,24.04z"/>
<path class="st4" d="M33.61,14.33c0,0-3.14,1.99-1.41,4.3l0.01-0.02C34.93,17.71,33.61,14.33,33.61,14.33z"/>
<path class="st4" d="M59.81,23.49c0,0-7.18-2.29-8.52,3.42l0.03-0.01C56.28,29.96,59.81,23.49,59.81,23.49z"/>
<path class="st5" d="M59.66,19.4c0,0-3.6-1.14-4.27,1.71l0.02-0.01C57.89,22.65,59.66,19.4,59.66,19.4z"/>
<path class="st5" d="M61.95,28.77c0,0-2.73-2.6-4.59-0.33l0.02,0C58.94,30.92,61.95,28.77,61.95,28.77z"/>
<path class="st5" d="M59.87,33.2c0,0-1.92-3.25-4.33-1.56l0.02,0.01C56.4,34.44,59.87,33.2,59.87,33.2z"/>
<path class="st6" d="M47.74,4.79c-0.76,2.44-7.07,2.61-4.62,7.93l0.02-0.03C48.94,12.06,48.5,2.35,47.74,4.79z"/>
<path class="st5" d="M50.16,16.6c0,0-4.26,0.82-3.37,4.07l0.01-0.02C50.16,20.84,50.16,16.6,50.16,16.6z"/>
<path class="st2" d="M55.55,7.56c0,0-7.08,2.59-4.65,7.92l0.02-0.03C56.72,14.84,55.55,7.56,55.55,7.56z"/>
<path class="st5" d="M36.31,16.48c0,0-3.14,1.99-1.41,4.3l0.01-0.02C37.64,19.86,36.31,16.48,36.31,16.48z"/>
<path class="st4" d="M36.41,1.45c0,0-5.8,1.48-4.3,5.89l0.02-0.02C36.76,7.3,36.41,1.45,36.41,1.45z"/>
<path class="st5" d="M29.29,12.05c0,0-0.65,3.16,1.84,3.47l-0.01-0.01C32.2,13.26,29.29,12.05,29.29,12.05z"/>
<path class="st5" d="M22.93,15.52c0,0-0.65,3.16,1.84,3.47l-0.01-0.01C25.84,16.73,22.93,15.52,22.93,15.52z"/>
<path class="st7" d="M49.23,42.37c0,0-3.11-6.86-8.24-4.05l0.03,0.02C42.05,44.08,49.23,42.37,49.23,42.37z"/>
<g>
</g>
<path class="st2" d="M13.97,7.79c0,0-0.89,4.32,2.52,4.75l-0.01-0.02C17.96,9.45,13.97,7.79,13.97,7.79z"/>
<g>
</g>
<g>
</g>
<g>
</g>
<g>
</g>
<g>
</g>
<g>
</g>
</svg>
