<svg width="284" height="114" viewBox="0 0 284 114" fill="none" xmlns="http://www.w3.org/2000/svg">
<path d="M28.4196 56.07C31.2496 56.07 33.3096 56.24 34.5896 56.59C35.8696 56.94 36.7896 57.35 37.3396 57.83C38.5596 58.89 39.1796 60.51 39.1796 62.69C39.1796 64.32 38.2996 65.87 36.5496 67.33C38.7796 68.46 39.8997 70.56 39.8997 73.63C39.8997 76.03 39.1096 77.81 37.5396 78.98C35.9697 80.14 33.6196 80.79 30.4996 80.91H20.2496L19.8896 77.92C20.1996 77.51 20.8596 77.12 21.8696 76.73V60.28C20.8896 59.92 20.2296 59.51 19.8896 59.06L20.2496 56.07H28.4196ZM28.9296 59.99H27.0596V66.22H30.0096C31.2296 66.22 32.1696 65.91 32.8196 65.28C33.4696 64.66 33.7896 63.89 33.7896 62.99C33.7896 62.09 33.5596 61.41 33.1096 60.96C32.6596 60.51 32.1297 60.23 31.5296 60.13C30.9197 60.04 30.0496 59.99 28.9296 59.99ZM30.2596 70.14H27.0596V76.98H29.5396C31.1697 76.98 32.4096 76.74 33.2496 76.26C34.0896 75.78 34.5096 74.92 34.5096 73.67C34.5096 72.42 34.1796 71.52 33.5196 70.97C32.8596 70.42 31.7696 70.14 30.2596 70.14Z" fill="#38200F"/>
<path d="M63.9195 81.2C60.5095 81.2 57.9595 80.22 56.2695 78.25C54.5795 76.28 53.7295 73.1 53.7295 68.69C53.7295 64.28 54.6595 61.03 56.5195 58.93C58.3795 56.83 61.0295 55.78 64.4795 55.78C67.9195 55.78 70.4895 56.72 72.1795 58.59C73.8695 60.46 74.7195 63.59 74.7195 67.99C74.7195 72.39 73.7695 75.68 71.8795 77.89C69.9795 80.09 67.3195 81.2 63.9195 81.2ZM60.4195 61.72C59.5595 62.97 59.1195 65.14 59.1195 68.24C59.1195 71.34 59.5795 73.59 60.4895 75.01C61.3995 76.43 62.6595 77.13 64.2495 77.13C65.8395 77.13 67.0895 76.46 67.9795 75.13C68.8695 73.8 69.3095 71.58 69.3095 68.49C69.3095 62.73 67.5795 59.85 64.1295 59.85C62.5195 59.85 61.2895 60.47 60.4195 61.72Z" fill="#38200F"/>
<path d="M92.1395 60.32C91.4194 60.01 90.3395 59.85 88.8995 59.85C87.4595 59.85 86.2995 60.47 85.4095 61.72C84.5195 62.97 84.0795 65.15 84.0795 68.27C84.0795 71.39 84.5095 73.6 85.3595 74.91C86.2095 76.22 87.4795 76.87 89.1595 76.87C91.7295 76.87 94.0295 76.49 96.0695 75.72L97.3695 78.92C94.8295 80.43 91.8395 81.19 88.4095 81.19C84.9795 81.19 82.4995 80.22 80.9795 78.27C79.4595 76.33 78.6895 73.15 78.6895 68.73C78.6895 64.31 79.6294 61.05 81.5194 58.94C83.3994 56.83 86.0494 55.77 89.4594 55.77C92.1994 55.77 94.7994 56.53 97.2694 58.04C97.2694 58.18 97.2694 58.46 97.2694 58.87C97.2694 59.28 97.1894 59.97 97.0194 60.96C96.8494 61.95 96.6095 62.75 96.2995 63.37H92.8794C92.5194 62.73 92.2795 61.71 92.1395 60.32Z" fill="#38200F"/>
<path d="M113.959 55.89L121.119 76.66C122.129 77.02 122.839 77.44 123.239 77.92L122.879 80.91H114.459L114.099 77.92C114.389 77.54 114.959 77.18 115.829 76.84L114.859 73.82H107.659L106.759 76.74C107.599 77.08 108.219 77.47 108.629 77.93L108.269 80.92H100.059L99.6992 77.93C100.129 77.38 100.939 76.92 102.109 76.56L109.019 55.9H113.959V55.89ZM110.969 60.93C110.969 62.39 110.669 64.1 110.069 66.04L108.669 70.5H113.819L112.449 66.11C111.899 64.43 111.589 62.91 111.509 61.54L111.469 60.93H110.969Z" fill="#38200F"/>
<path d="M149.45 67.34C149.45 66.38 149.53 64.89 149.7 62.88L149.77 62.02L149.41 61.98C148.86 64.02 148.38 65.64 147.97 66.84L143.18 80.92H138.39L133.35 66.84C132.89 65.76 132.49 64.42 132.13 62.81L131.91 61.98L131.55 62.02C131.77 64.16 131.87 65.93 131.87 67.35V76.82C132.76 77.16 133.42 77.6 133.85 78.15L133.49 80.92H126.43L126.07 78.15C126.5 77.6 127.16 77.15 128.05 76.82V60.17C127.07 59.81 126.38 59.37 126 58.84L126.36 56.07H134.57L139.83 70.58C140.5 72.16 140.93 73.62 141.13 74.94L141.24 75.55H141.74C141.84 74.09 142.27 72.43 143.04 70.58L148.04 56.07H156.1L156.46 58.84C156.08 59.37 155.39 59.81 154.41 60.17V76.66C155.35 77.02 156.01 77.44 156.39 77.92L156.03 80.91H147.82L147.46 77.96C147.84 77.48 148.5 77.06 149.44 76.7V67.34H149.45Z" fill="#38200F"/>
<path d="M169.32 72.27H167.7V76.52C169.45 76.9 170.54 77.37 170.98 77.92L170.62 80.91H160.9L160.54 77.92C160.85 77.51 161.51 77.12 162.52 76.73V60.28C161.54 59.92 160.88 59.51 160.54 59.06L160.9 56.07H170.44C173.78 56.12 176.27 56.72 177.91 57.89C179.55 59.05 180.38 61.12 180.38 64.1C180.38 69.54 176.69 72.27 169.32 72.27ZM169.86 59.99H167.7V68.34H170.11C171.74 68.34 172.96 68.02 173.76 67.37C174.56 66.72 174.97 65.6 174.97 64C174.97 62.4 174.53 61.34 173.66 60.8C172.79 60.26 171.52 59.99 169.86 59.99Z" fill="#38200F"/>
<path d="M201.219 80.91H184.519L184.159 77.92C184.469 77.51 185.129 77.12 186.139 76.73V60.28C185.159 59.92 184.499 59.51 184.159 59.06L184.519 56.07H200.939V62.33L198.279 62.65C197.729 62.17 197.279 61.28 196.949 59.99H191.329V66.18H196.329C196.619 65.46 196.919 64.96 197.229 64.67L199.499 64.92V71.33L197.229 71.62C196.919 71.38 196.619 70.88 196.329 70.11H191.329V76.99H197.229C197.539 75.74 197.989 74.85 198.559 74.33L201.219 74.65V80.91Z" fill="#38200F"/>
<path d="M214.139 56.07L214.499 59.06C214.119 59.52 213.459 59.92 212.519 60.28V76.73C213.479 77.11 214.139 77.51 214.499 77.92L214.139 80.91H205.719L205.359 77.92C205.669 77.51 206.329 77.12 207.339 76.73V60.28C206.359 59.92 205.699 59.51 205.359 59.06L205.719 56.07H214.139Z" fill="#38200F"/>
<path d="M238.08 63.34C238.08 64.97 237.57 66.34 236.55 67.44C235.53 68.54 234.25 69.38 232.72 69.96C233.92 70.46 234.71 71.08 235.1 71.8L237.73 76.8C238.86 77.18 239.63 77.63 240.03 78.13L239.67 80.9H233.59L229.45 72.08C229.07 71.19 228.62 70.75 228.12 70.75H225.78V76.51C227.53 76.89 228.62 77.36 229.06 77.91L228.7 80.9H218.98L218.62 77.91C218.93 77.5 219.59 77.11 220.6 76.72V60.28C219.62 59.92 218.96 59.51 218.62 59.06L218.98 56.07H228.16C231.52 56.12 234.02 56.66 235.65 57.69C237.27 58.72 238.08 60.6 238.08 63.34ZM227.89 59.99H225.77V66.83H227.82C229.45 66.83 230.67 66.58 231.47 66.09C232.27 65.6 232.68 64.72 232.68 63.44C232.68 62.17 232.27 61.27 231.46 60.76C230.64 60.25 229.45 59.99 227.89 59.99Z" fill="#38200F"/>
<path d="M252.879 81.2C249.469 81.2 246.919 80.22 245.229 78.25C243.539 76.28 242.689 73.1 242.689 68.69C242.689 64.28 243.619 61.03 245.479 58.93C247.339 56.83 249.989 55.78 253.439 55.78C256.879 55.78 259.449 56.72 261.139 58.59C262.829 60.46 263.679 63.59 263.679 67.99C263.679 72.39 262.729 75.68 260.839 77.89C258.939 80.09 256.289 81.2 252.879 81.2ZM249.389 61.72C248.529 62.97 248.089 65.14 248.089 68.24C248.089 71.34 248.549 73.59 249.459 75.01C250.369 76.43 251.629 77.13 253.219 77.13C254.819 77.13 256.059 76.46 256.949 75.13C257.839 73.8 258.279 71.58 258.279 68.49C258.279 62.73 256.549 59.85 253.099 59.85C251.489 59.85 250.249 60.47 249.389 61.72Z" fill="#38200F"/>
<path d="M19.6801 83.23C19.6801 83.23 43.8601 80.74 48.0301 80.91C52.2001 81.08 79.0801 83.23 79.0801 83.23L262.44 81.92C262.44 81.92 265.8 81.42 265.08 83.23C264.36 85.04 215.16 84.56 215.16 84.56L19.6801 84.62C19.6801 84.62 18.3301 84.09 19.6801 83.23Z" fill="#38200F"/>
<path d="M44.3001 82.58C44.3001 82.58 45.6601 59.81 45.3701 58.56C45.0801 57.31 46.4801 53.94 41.4201 52.36C40.8801 52.19 39.0501 50.78 37.0001 51.39C34.9501 52 33.0801 51.29 33.0801 51.29L34.0501 49.19C34.0501 49.19 34.4401 50.36 37.3401 49.67C40.2401 48.98 44.2401 51.84 46.0501 52.77C47.8601 53.7 48.4201 48.89 47.0801 43.96C46.8701 43.18 49.2801 43.62 49.4701 43.62C49.6601 43.62 49.7901 51.67 50.3701 51.95C50.9501 52.23 52.5601 51.17 55.2401 50.24C57.9201 49.32 57.7601 46.94 57.7601 46.94L59.8201 47.16C59.8201 47.16 59.2401 51.05 56.1101 51.83C52.9801 52.61 50.2701 53.96 50.2701 53.96C50.2701 53.96 49.0901 83.9 53.0601 83.2C57.0201 82.51 44.3001 82.58 44.3001 82.58Z" fill="#38200F"/>
<path d="M46.8297 31.18C46.3997 31.96 46.4097 32.75 46.2597 33.49C46.1097 34.27 45.7897 34.28 45.3197 33.78C44.2997 32.71 43.8397 31.41 44.0997 29.96C44.3997 28.28 45.2697 26.84 46.1897 25.43C46.3397 25.2 46.4597 24.95 46.8497 25.2C48.3697 26.17 49.9597 30.09 49.5197 31.87C49.4597 32.11 49.4097 32.35 49.3097 32.57C49.0797 33.09 48.8497 33.84 48.2997 33.86C47.6997 33.88 47.8097 33.05 47.5797 32.6C47.3497 32.19 47.3697 31.65 46.8297 31.18Z" fill="#749D3E"/>
<path d="M42.9596 42.36C42.9196 40.94 42.5196 39.92 41.3896 39.04C40.1796 38.1 38.9997 37.39 37.5797 36.87C37.0097 36.67 37.6896 37.52 37.7896 38.68C37.8896 39.84 37.6896 39.53 37.6996 41.94C37.7196 44.36 39.4196 44.4 39.8696 44.49C40.3196 44.58 41.6796 44.08 42.1896 43.75C42.6996 43.42 42.9696 42.66 42.9596 42.36Z" fill="#7B9833"/>
<path d="M39.3704 52.1C39.4104 52.7 38.8004 53.1 38.8604 53.72C39.4604 53.63 39.7904 53.05 40.3504 52.92C40.6104 53.82 40.2604 54.89 39.4504 55.41C38.5604 55.98 37.4104 56.69 36.5604 56.28C35.9904 56 36.5704 54.65 36.8404 53.83C37.2504 52.61 38.1604 52.02 39.3704 52.1Z" fill="#749D3E"/>
<path d="M30.26 43.48C29.06 44.88 27.69 45.16 25.93 44.34C25.06 43.93 23.67 43.53 23.67 42.73C23.66 41.92 25.05 41.51 25.91 41.06C27.16 40.41 28.42 40.39 29.63 41.17C29.83 41.3 30.08 41.44 30.06 41.72C30.04 42.04 29.71 41.99 29.51 42.09C29.09 42.3 28.53 42.21 28.18 42.7C28.77 43.2 29.6 42.98 30.26 43.48Z" fill="#749D3E"/>
<path d="M53.5802 31.38C52.8402 31.47 52.4802 31.94 52.0102 32.23C51.4702 32.57 51.2402 32.37 51.2702 31.82C51.3402 30.59 51.9102 29.64 52.9902 29.03C54.0602 28.43 55.7002 27.49 56.3202 28.1C57.0902 28.86 56.2902 30.46 55.8302 31.63C55.4402 32.6 54.6602 33.18 53.7002 33.51C53.4302 33.6 53.1202 33.75 52.8902 33.54C52.6202 33.29 52.8802 33.02 52.9802 32.77C53.1502 32.33 53.3502 31.9 53.5802 31.38Z" fill="#749D3E"/>
<path d="M54.68 39.25C54.76 38.52 55.38 38.02 55.39 37.07C54.67 37.54 54.09 37.92 53.48 38.32C53.17 36.8 53.63 35.6 54.78 34.88C55.77 34.26 56.89 34.01 58 33.73C58.23 33.67 58.44 33.61 58.54 33.98C58.98 35.59 57.42 38.63 55.84 39.19C55.48 39.32 55.14 39.42 54.68 39.25Z" fill="#749D3E"/>
<path d="M37.1098 35.61C36.2898 35.39 35.9598 34.57 35.2098 34.42C35.0298 34.87 35.3498 35.16 35.4298 35.5C35.4998 35.85 35.9198 36.24 35.6598 36.5C35.2898 36.88 34.7998 36.52 34.4198 36.32C32.9698 35.57 32.5898 34.22 32.5098 32.72C32.3698 30.26 32.4298 30.22 34.6198 31.3C36.7798 32.36 37.4298 33.46 37.1098 35.61Z" fill="#749D3E"/>
<path d="M35.7201 40.06H33.3401C33.8001 40.88 34.7601 40.92 35.1201 41.62C33.9201 42.47 32.5801 42.46 31.4001 41.54C30.4301 40.79 28.9401 39.65 29.2301 38.84C29.6001 37.84 31.3901 37.95 32.6301 37.92C34.0001 37.9 34.9301 38.55 35.7201 40.06Z" fill="#749D3E"/>
<path d="M59.8701 46.69C59.9701 46.2 60.3201 46.01 60.5501 45.73C60.7501 45.48 61.0601 45.31 61.0901 44.92C60.6701 44.68 60.3301 45.02 59.9501 45.06C59.6201 45.09 59.2501 45.54 58.9801 45.1C58.7701 44.76 59.0501 44.38 59.2301 44.07C59.9901 42.76 61.2101 42.3 62.6501 42.32C63.4501 42.33 64.6201 41.98 64.9601 42.58C65.3501 43.26 64.4901 44.12 64.0701 44.83C62.9601 46.68 61.6601 47.24 59.8701 46.69Z" fill="#749D3E"/>
<path d="M42.7799 36.42C41.9699 36.28 41.6599 35.42 40.8599 35.26C40.7799 36.05 41.3899 36.62 41.4099 37.34C40.0699 37.46 38.8999 36.62 38.4599 35.19C38.1399 34.16 38.1099 33.1 38.1399 32.03C38.1499 31.69 38.1599 31.29 38.6599 31.48C40.1399 32.06 41.7199 32.52 42.5499 34.05C42.9499 34.79 43.0699 35.58 42.7799 36.42Z" fill="#749D3E"/>
<path d="M62.4002 37.85C61.8302 38.22 61.2502 38.59 60.6702 38.96C60.2302 37.64 60.7002 36.35 61.8902 35.6C62.8702 34.98 63.9902 34.71 65.1002 34.43C65.4102 34.35 65.7402 34.34 65.6702 34.77C65.4302 36.42 65.4002 38.16 63.9502 39.35C63.7902 39.48 63.6202 39.61 63.4402 39.69C62.9602 39.89 62.3702 40.31 61.9602 39.92C61.6202 39.6 62.2002 39.15 62.3302 38.74C62.4102 38.48 62.5202 38.24 62.6202 37.99C62.5402 37.95 62.4702 37.9 62.4002 37.85Z" fill="#749D3E"/>
<path d="M66.6302 48.93C64.8902 50.94 63.7802 51.32 62.2402 50.4C62.4102 49.89 63.0902 49.99 63.4002 49.43C62.8902 49.38 62.4502 49.34 61.9902 49.29C62.7202 47.64 64.2802 47.52 66.6302 48.93Z" fill="#749D3E"/>
<path d="M56.5195 52.72C57.7995 51.75 59.5695 51.93 60.5495 53.02C60.7595 53.25 60.7595 53.39 60.5695 53.63C59.6495 54.78 57.8095 55 56.6395 54.07C56.7495 53.52 57.4795 53.83 57.6495 53.34C57.3695 52.99 56.7695 53.22 56.5195 52.72Z" fill="#749D3E"/>
<path d="M27.9304 48.47C28.5704 48.76 29.2104 49.04 29.8404 49.33C30.1603 49.47 30.6303 49.54 30.6403 49.93C30.6603 50.38 30.1804 50.56 29.8303 50.72C28.4303 51.39 26.9703 51.47 25.5803 50.76C24.1003 50.01 22.8803 48.88 21.7203 47.69C21.3103 47.27 21.2404 46.97 21.8404 46.7C23.3404 46.02 24.8504 45.32 26.5104 45.14C28.0704 44.97 29.4004 45.54 30.5104 46.62C30.7503 46.85 31.1104 47.1 30.9504 47.51C30.8104 47.86 30.4204 47.77 30.1204 47.81C29.3904 47.91 28.6504 47.98 27.9204 48.06C27.9304 48.2 27.9304 48.33 27.9304 48.47Z" fill="#749D3E"/>
<path d="M51.7301 47.96L52.8701 45.62C51.8501 45.68 51.3601 46.6 50.4901 46.62C50.2301 45.03 50.8701 43.73 52.3401 43.01C53.5401 42.42 55.3601 41.49 56.0201 42.18C56.8301 43.02 55.8601 44.72 55.3001 45.95C54.6801 47.3 53.5901 47.9 51.7301 47.96Z" fill="#749D3E"/>
<path d="M64.5602 32.75C62.6602 34.94 61.4502 35.35 59.7702 34.35C59.9502 33.79 60.7002 33.9 61.0302 33.29C60.4702 33.23 59.9902 33.19 59.4902 33.14C60.2902 31.35 61.9902 31.22 64.5602 32.75Z" fill="#749D3E"/>
<path d="M51.1202 36.91C52.8102 39.27 52.9302 40.54 51.5702 41.94C51.0702 41.63 51.3502 40.93 50.8402 40.47C50.6602 41 50.5002 41.46 50.3302 41.93C48.7702 40.73 49.0302 39.05 51.1202 36.91Z" fill="#749D3E"/>
<path d="M43.1501 44.34C45.3401 46.24 45.75 47.45 44.75 49.13C44.19 48.95 44.3 48.2 43.69 47.87C43.63 48.43 43.5901 48.91 43.5401 49.41C41.7401 48.61 41.6101 46.91 43.1501 44.34Z" fill="#749D3E"/>
<path d="M45.3303 34.12C46.7903 36.63 46.7803 37.9 45.2903 39.17C44.8203 38.81 45.1703 38.14 44.7003 37.64C44.4703 38.15 44.2703 38.59 44.0603 39.05C42.6203 37.71 43.0503 36.06 45.3303 34.12Z" fill="#749D3E"/>
<path d="M70.4108 45.8C68.5108 47.99 67.3008 48.4 65.6208 47.4C65.8008 46.84 66.5508 46.95 66.8808 46.34C66.3208 46.28 65.8408 46.24 65.3408 46.19C66.1508 44.4 67.8508 44.26 70.4108 45.8Z" fill="#749D3E"/>
<path d="M34.2805 42.8C36.4305 43.5 37.0905 44.25 36.8905 45.76C36.4305 45.8 36.2905 45.23 35.7505 45.17C35.8805 45.59 35.9905 45.95 36.1105 46.32C34.5705 46.3 33.9505 45.11 34.2805 42.8Z" fill="#749D3E"/>
<path d="M60.2301 38.9C60.7901 41.09 60.5201 42.05 59.1301 42.69C58.8501 42.32 59.2601 41.89 59.0101 41.41C58.7301 41.74 58.4801 42.03 58.2301 42.33C57.4301 41.01 58.1001 39.86 60.2301 38.9Z" fill="#749D3E"/>
<path d="M58.0207 32.22L58.8307 30.55C58.1007 30.59 57.7507 31.25 57.1307 31.27C56.9407 30.14 57.4007 29.21 58.4507 28.69C59.3107 28.27 60.6107 27.61 61.0807 28.09C61.6607 28.69 60.9707 29.91 60.5607 30.79C60.1307 31.75 59.3507 32.18 58.0207 32.22Z" fill="#749D3E"/>
<path d="M43.0406 30.54L41.2006 28.71C40.9206 29.69 41.6406 30.46 41.3806 31.28C39.7906 31.01 38.7706 29.98 38.5706 28.36C38.4006 27.03 38.1206 25.01 38.9706 24.61C40.0306 24.12 41.3306 25.58 42.3006 26.52C43.3706 27.54 43.5906 28.76 43.0406 30.54Z" fill="#749D3E"/>
<path d="M50.3501 33.28C50.9101 35.47 50.6401 36.43 49.2501 37.07C48.9701 36.7 49.3801 36.27 49.1301 35.79C48.8501 36.12 48.6001 36.41 48.3501 36.71C47.5601 35.4 48.2301 34.25 50.3501 33.28Z" fill="#749D3E"/>
<path d="M47.5603 38.28C47.9703 39.89 47.7703 40.59 46.7503 41.05C46.5503 40.78 46.8403 40.47 46.6603 40.12C46.4503 40.36 46.2703 40.57 46.0903 40.79C45.5103 39.82 46.0003 38.98 47.5603 38.28Z" fill="#749D3E"/>
<path d="M38.4706 45.59C39.8206 46.79 40.0706 47.54 39.4306 48.58C39.0806 48.46 39.1606 48 38.7806 47.79C38.7406 48.14 38.7106 48.44 38.6706 48.75C37.5706 48.24 37.4906 47.18 38.4706 45.59Z" fill="#749D3E"/>
<path d="M52.9302 24.83C53.4902 27.02 53.2202 27.98 51.8302 28.62C51.5502 28.25 51.9602 27.82 51.7102 27.34C51.4302 27.67 51.1802 27.96 50.9302 28.26C50.1302 26.94 50.8002 25.79 52.9302 24.83Z" fill="#749D3E"/>
<path d="M28.6999 33.19C31.0299 33.93 31.7499 34.73 31.5299 36.36C31.0399 36.4 30.8699 35.79 30.2999 35.74C30.4399 36.19 30.5699 36.58 30.6899 36.98C29.0399 36.95 28.3699 35.68 28.6999 33.19Z" fill="#749D3E"/>
<path d="M58.9302 23.2C59.4902 25.39 59.2202 26.35 57.8302 26.99C57.5502 26.62 57.9602 26.19 57.7102 25.71C57.4302 26.04 57.1802 26.33 56.9302 26.63C56.1302 25.32 56.8002 24.17 58.9302 23.2Z" fill="#749D3E"/>
<path d="M65.7803 40.4C67.0603 39.43 68.8303 39.61 69.8103 40.7C70.0203 40.93 70.0203 41.07 69.8303 41.31C68.9103 42.46 67.0703 42.68 65.9003 41.75C66.0103 41.2 66.7403 41.51 66.9103 41.02C66.6303 40.67 66.0403 40.9 65.7803 40.4Z" fill="#749D3E"/>
<path d="M68.32 28.96C66.42 31.15 65.21 31.56 63.53 30.56C63.71 30 64.46 30.11 64.79 29.5C64.23 29.44 63.75 29.4 63.25 29.35C64.05 27.56 65.75 27.42 68.32 28.96Z" fill="#749D3E"/>
<path d="M69.3502 33.79C69.9102 35.98 69.6402 36.94 68.2502 37.58C67.9702 37.21 68.3802 36.78 68.1302 36.3C67.8402 36.63 67.6002 36.92 67.3502 37.22C66.5502 35.91 67.2202 34.76 69.3502 33.79Z" fill="#749D3E"/>
<path d="M43.5006 19.44C45.6906 21.34 46.1006 22.55 45.1006 24.23C44.5406 24.05 44.6506 23.3 44.0406 22.97C43.9806 23.53 43.9406 24.01 43.8906 24.51C42.0906 23.71 41.9606 22.01 43.5006 19.44Z" fill="#749D3E"/>
<path d="M41.37 44.04C40.94 43.23 40.61 42.4 40.25 41.59C40.08 41.18 39.89 40.78 39.71 40.38C39.52 39.98 39.31 39.6 39.04 39.23C39.46 39.45 39.77 39.81 40.04 40.18C40.32 40.55 40.53 40.97 40.71 41.38C41.06 42.23 41.31 43.12 41.37 44.04Z" fill="white"/>
<path d="M40.3202 39.18C40.3302 39.72 40.2302 40.22 40.1002 40.71L40.0402 40.93L39.8002 40.88C39.4802 40.81 39.1802 40.71 38.8702 40.59C38.5702 40.46 38.2702 40.33 37.9902 40.14C38.3302 40.11 38.6602 40.15 38.9802 40.19C39.3002 40.24 39.6202 40.31 39.9302 40.41L39.6302 40.57C39.8102 40.08 40.0102 39.61 40.3202 39.18Z" fill="white"/>
<path d="M41.6305 40.62C41.5505 41.44 41.3405 42.21 41.1105 42.98L41.0405 43.21L40.8005 43.14C40.3605 43 39.9205 42.85 39.4905 42.67C39.0605 42.48 38.6305 42.3 38.2305 42.05C38.7105 42.09 39.1605 42.19 39.6205 42.29C40.0705 42.4 40.5205 42.53 40.9605 42.68L40.6505 42.84C40.9005 42.07 41.2005 41.32 41.6305 40.62Z" fill="white"/>
</svg>
