<?xml version="1.0" encoding="utf-8"?>
<!-- Generator: Adobe Illustrator 23.0.1, SVG Export Plug-In . SVG Version: 6.00 Build 0)  -->
<svg version="1.1" xmlns="http://www.w3.org/2000/svg" xmlns:xlink="http://www.w3.org/1999/xlink" x="0px" y="0px"
	 viewBox="0 0 800 800" style="enable-background:new 0 0 800 800;" xml:space="preserve">
<style type="text/css">
	.st0{fill:none;stroke:#311C13;stroke-width:25;stroke-miterlimit:10;}
	.st1{fill:#311C13;}
	.st2{fill:#687032;}
	.st3{fill:#402311;}
	.st4{fill:#779235;}
	.st5{fill:#80852D;}
	.st6{fill:#97B139;}
	.st7{fill:#C9C024;}
	.st8{fill:#5B6F2F;}
</style>
<g id="Camada_2">
</g>
<g id="Camada_1">
	<circle class="st0" cx="397.41" cy="399.2" r="373.83"/>
	<path class="st1" d="M192.05,687c0,0,155.93,9.8,176.19-63.18c20.26-72.98,54.5,6.27,54.5,6.27s91.96,65.82,184.55,57.34
		s-205.82,95.32-205.82,95.32S174,738.83,192.05,687z"/>
	<path class="st1" d="M363.08,680.93c0,0,12.67-212.32,9.95-223.97c-2.73-11.65,10.39-43.1-36.84-57.78
		c-5.02-1.56-22.1-14.7-41.23-9.06c-19.12,5.65-36.57-0.93-36.57-0.93s12.64-8.7,39.71-15.14c27.08-6.44,49.11,12.37,74.71,15.26
		c25.6,2.89,28.61-22.5,16.14-68.44c-1.97-7.28,20.53-3.13,22.26-3.13s3.01,75.08,8.42,77.69s20.46-7.3,45.43-15.9
		c24.97-8.6,23.47-30.76,23.47-30.76s13.84,38.32-15.34,45.62c-29.18,7.3-54.45,19.83-54.45,19.83s-10.98,279.22,26.02,272.67
		C481.76,680.33,363.08,680.93,363.08,680.93z"/>
	<g>
		<path class="st2" d="M254.79,254.53c0,0,11.78,20.07,26.63,9.75l-0.1-0.04C276.27,246.93,254.79,254.53,254.79,254.53z"/>
		<path class="st2" d="M275.77,280.24c0,0,22.28,6.74,26.18-10.92l-0.1,0.04C286.39,260.09,275.77,280.24,275.77,280.24z"/>
		<path class="st2" d="M295.7,245.71c0,0-2.87,23.09,15.2,23.94l-0.06-0.09C317.36,252.75,295.7,245.71,295.7,245.71z"/>
	</g>
	<g>
		<g>
			<g>
				<path class="st3" d="M480.44,372.53c7.24,0.64,12.49,0.55,19.4,3.68c4.43,2,9.02,4,15.89,7.25c-2.99-2.77-5.75-4.61-10.1-6.79
					c-2.9-1.45-24.41-11.2-25.37-5.45c0.78,0-0.69,0.38-0.39,0.42"/>
			</g>
			<g>
				<path class="st4" d="M525.72,386.36c0,0-11.17,4.2-13.76-4.7l0.05,0.02C519.61,376.41,525.72,386.36,525.72,386.36z"/>
			</g>
			<g>
				<path class="st4" d="M509.06,389.84c0,0-11.06-4.5-6.91-12.8l0.02,0.05C511.33,378.39,509.06,389.84,509.06,389.84z"/>
			</g>
			<g>
				<path class="st4" d="M512.26,369.65c0,0-6.31,10.13-13.79,4.64l0.05-0.02C501.35,365.47,512.26,369.65,512.26,369.65z"/>
			</g>
		</g>
	</g>
	<path class="st3" d="M330.26,283.78c-8.81-5.92-14.69-10.85-25.41-13.66c-6.88-1.8-13.92-3.75-24.72-6.37
		c5.94-0.39,10.77,0.05,17.72,1.57c4.63,1.01,38.02,9.72,33.82,17.14c-0.88-0.72,0.44,1.06,0.05,0.83"/>
	<path class="st1" d="M395.56,354.12c0,0,3-16.72-17.1-31.9c-22.15-16.73-34.85-14.97-45.36-33.22
		c-10.51-18.25-17.52-39-13.64-47.77c0,0-0.7,12.33,11.15,36.18c9.94,20.01,20.5,24.57,30.79,27.61
		c15.93,4.7,48.01,21.63,46.03,37.92C405.46,359.22,395.56,354.12,395.56,354.12z"/>
	<path class="st5" d="M276.22,294.25c0,0-14.51,24.89,5.65,34.66l-0.02-0.14C297.45,312.81,276.22,294.25,276.22,294.25z"/>
	<path class="st4" d="M210.42,292.56c0,0,5.19,28.34,26.85,22.63l-0.11-0.09C238.62,292.83,210.42,292.56,210.42,292.56z"/>
	<path class="st6" d="M344.67,224.56c0,0-23.26,39.9,9.05,55.55l-0.04-0.22C378.69,254.32,344.67,224.56,344.67,224.56z"/>
	<path class="st6" d="M445.29,316.93c0,0-23.26,39.9,9.05,55.55l-0.04-0.22C479.31,346.69,445.29,316.93,445.29,316.93z"/>
	<path class="st2" d="M442.64,264.92c0,0-44.75,11.43-33.22,45.44l0.13-0.18C445.32,310.04,442.64,264.92,442.64,264.92z"/>
	<path class="st5" d="M306.02,319.47c0,0-9.29,45.24,26.34,49.74l-0.11-0.19C347.77,336.78,306.02,319.47,306.02,319.47z"/>
	<path class="st5" d="M518.28,266.54c0,0-53.43,22.95-32.45,63l0.12-0.25C530.43,322.14,518.28,266.54,518.28,266.54z"/>
	<path class="st5" d="M399.93,264.92c0,0-44.75,11.43-33.22,45.44l0.13-0.18C402.61,310.04,399.93,264.92,399.93,264.92z"/>
	<path class="st6" d="M477.06,239.35c0,0-39.02,24.7-17.54,53.48l0.07-0.21C493.56,281.43,477.06,239.35,477.06,239.35z"/>
	<path class="st5" d="M450.85,194.37c0,0-34.13,31.11-7.98,55.72l0.03-0.22C474.41,232.94,450.85,194.37,450.85,194.37z"/>
	<path class="st4" d="M410.22,154.15c0,0-44.75,11.43-33.22,45.44l0.13-0.18C412.9,199.27,410.22,154.15,410.22,154.15z"/>
	<path class="st5" d="M221.59,347.21c0,0,21.71,40.76,52.02,21.5l-0.21-0.08C264.79,333.91,221.59,347.21,221.59,347.21z"/>
	<path class="st5" d="M226.15,243.27c0,0-9.29,45.24,26.34,49.74l-0.11-0.19C267.9,260.58,226.15,243.27,226.15,243.27z"/>
	<path class="st4" d="M279.4,170.16c0,0-24.52,39.14,7.29,55.81l-0.03-0.22C312.46,200.98,279.4,170.16,279.4,170.16z"/>
	<path class="st5" d="M317.73,163.2c0,0-9.29,45.24,26.34,49.74l-0.11-0.19C359.48,180.52,317.73,163.2,317.73,163.2z"/>
	<path class="st6" d="M216.92,198.01c0,0,5.28,45.88,40.53,39.06l-0.16-0.15C261.99,201.45,216.92,198.01,216.92,198.01z"/>
	<path class="st4" d="M162.36,317.47c0,0-9.29,45.24,26.34,49.74l-0.11-0.19C204.11,334.79,162.36,317.47,162.36,317.47z"/>
	<path class="st5" d="M221.59,415.59c0,0,46.17,1.04,44.23-34.82l-0.17,0.14C231.15,371.42,221.59,415.59,221.59,415.59z"/>
	<path class="st4" d="M294.3,428.72c0,0,45.77-6.16,38.27-41.27l-0.15,0.16C296.87,383.59,294.3,428.72,294.3,428.72z"/>
	<path class="st4" d="M554.83,327.22c0,0-55.41-17.64-65.78,26.36l0.26-0.11C527.6,377.19,554.83,327.22,554.83,327.22z"/>
	<path class="st4" d="M570.81,217.96c0,0-46.07-3.21-45.81,32.7l0.18-0.13C559.18,261.64,570.81,217.96,570.81,217.96z"/>
	<path class="st4" d="M504.28,191.14c0,0-32.88,6.29-26.04,31.41l0.1-0.12C504.23,223.9,504.28,191.14,504.28,191.14z"/>
	<path class="st5" d="M447.17,159.93c0,0-44.75,11.43-33.22,45.44l0.13-0.18C449.85,205.05,447.17,159.93,447.17,159.93z"/>
	<path class="st4" d="M351.82,120.92c0,0-25.31,38.63,6.14,55.95l-0.03-0.22C384.25,152.41,351.82,120.92,351.82,120.92z"/>
	<path class="st4" d="M340.48,321.53c0,0-5,24.35,14.18,26.78l-0.06-0.1C362.95,330.85,340.48,321.53,340.48,321.53z"/>
	<path class="st4" d="M377.78,341.8c0,0-24.6,3.6-20.35,22.45l0.08-0.09C376.68,366.1,377.78,341.8,377.78,341.8z"/>
	<path class="st4" d="M150.65,288.06c-17.85-11.04,21.71,40.76,52.02,21.5l-0.21-0.08C193.85,274.76,168.49,299.11,150.65,288.06z"
		/>
	<path class="st5" d="M180.52,401.75c0,0,46.17,1.04,44.23-34.82l-0.17,0.14C190.09,357.58,180.52,401.75,180.52,401.75z"/>
	<path class="st4" d="M242.41,318.55c0,0,5.19,28.34,26.85,22.63l-0.11-0.09C270.61,318.82,242.41,318.55,242.41,318.55z"/>
	<path class="st4" d="M308.8,283.9c0,0-14.97,19.85,1.31,30.27l-0.01-0.12C325.09,301.97,308.8,283.9,308.8,283.9z"/>
	<path class="st5" d="M388.59,209.01c0,0-24.2,15.32-10.88,33.17l0.04-0.13C398.82,235.11,388.59,209.01,388.59,209.01z"/>
	<path class="st5" d="M590.77,279.67c0,0-55.41-17.64-65.78,26.36l0.26-0.11C563.54,329.64,590.77,279.67,590.77,279.67z"/>
	<path class="st4" d="M589.63,248.13c0,0-27.75-8.84-32.95,13.2l0.13-0.05C575.99,273.16,589.63,248.13,589.63,248.13z"/>
	<path class="st4" d="M607.28,320.46c0,0-21.08-20.09-35.4-2.55l0.14,0.01C584.06,336.99,607.28,320.46,607.28,320.46z"/>
	<path class="st4" d="M591.28,354.59c0,0-14.85-25.05-33.39-12.05l0.13,0.05C564.45,364.21,591.28,354.59,591.28,354.59z"/>
	<path class="st7" d="M497.65,135.36c-5.84,18.8-54.55,20.14-35.68,61.23l0.14-0.24C506.89,191.51,503.49,116.56,497.65,135.36z"/>
	<path class="st4" d="M516.34,226.48c0,0-32.88,6.29-26.04,31.41l0.1-0.12C516.29,259.24,516.34,226.48,516.34,226.48z"/>
	<path class="st6" d="M557.89,156.76c0,0-54.61,19.98-35.86,61.13l0.14-0.24C566.96,212.94,557.89,156.76,557.89,156.76z"/>
	<path class="st4" d="M409.47,225.59c0,0-24.2,15.32-10.88,33.17l0.04-0.13C419.7,251.69,409.47,225.59,409.47,225.59z"/>
	<path class="st5" d="M410.22,109.62c0,0-44.75,11.43-33.22,45.44l0.13-0.18C412.9,154.74,410.22,109.62,410.22,109.62z"/>
	<path class="st4" d="M355.25,191.38c0,0-5,24.35,14.18,26.78l-0.06-0.1C377.72,200.71,355.25,191.38,355.25,191.38z"/>
	<path class="st4" d="M306.15,218.18c0,0-5,24.35,14.18,26.78l-0.06-0.1C328.63,227.5,306.15,218.18,306.15,218.18z"/>
	<path class="st8" d="M509.13,425.35c0,0-23.97-52.98-63.62-31.23l0.25,0.12C453.78,438.56,509.13,425.35,509.13,425.35z"/>
	<g>
	</g>
	<path class="st6" d="M237.05,158.53c0,0-6.85,33.36,19.42,36.68l-0.08-0.14C267.84,171.3,237.05,158.53,237.05,158.53z"/>
	<g>
	</g>
	<g>
	</g>
	<g>
	</g>
	<g>
	</g>
	<g>
	</g>
	<g>
	</g>
</g>
</svg>
