<svg width="284" height="114" viewBox="0 0 284 114" fill="none" xmlns="http://www.w3.org/2000/svg">
<path d="M28.42 56.07C31.25 56.07 33.31 56.24 34.59 56.59C35.87 56.94 36.79 57.35 37.34 57.83C38.56 58.89 39.18 60.51 39.18 62.69C39.18 64.32 38.3 65.87 36.55 67.33C38.78 68.46 39.9 70.56 39.9 73.63C39.9 76.03 39.11 77.81 37.54 78.98C35.97 80.14 33.62 80.79 30.5 80.91H20.25L19.89 77.92C20.2 77.51 20.86 77.12 21.87 76.73V60.28C20.89 59.92 20.23 59.51 19.89 59.06L20.25 56.07H28.42ZM28.93 59.99H27.06V66.22H30.01C31.23 66.22 32.17 65.91 32.82 65.28C33.47 64.66 33.79 63.89 33.79 62.99C33.79 62.09 33.56 61.41 33.11 60.96C32.66 60.51 32.13 60.23 31.53 60.13C30.92 60.04 30.05 59.99 28.93 59.99ZM30.26 70.14H27.06V76.98H29.54C31.17 76.98 32.41 76.74 33.25 76.26C34.09 75.78 34.51 74.92 34.51 73.67C34.51 72.42 34.18 71.52 33.52 70.97C32.86 70.42 31.77 70.14 30.26 70.14Z" fill="#38200F"/>
<path d="M63.92 81.2C60.51 81.2 57.96 80.22 56.27 78.25C54.58 76.28 53.73 73.1 53.73 68.69C53.73 64.28 54.66 61.03 56.52 58.93C58.38 56.83 61.03 55.78 64.48 55.78C67.92 55.78 70.49 56.72 72.18 58.59C73.87 60.46 74.72 63.59 74.72 67.99C74.72 72.39 73.77 75.68 71.88 77.89C69.98 80.09 67.32 81.2 63.92 81.2ZM60.42 61.72C59.56 62.97 59.12 65.14 59.12 68.24C59.12 71.34 59.58 73.59 60.49 75.01C61.4 76.43 62.66 77.13 64.25 77.13C65.84 77.13 67.09 76.46 67.98 75.13C68.87 73.8 69.31 71.58 69.31 68.49C69.31 62.73 67.58 59.85 64.13 59.85C62.52 59.85 61.29 60.47 60.42 61.72Z" fill="#38200F"/>
<path d="M92.14 60.32C91.42 60.01 90.34 59.85 88.9 59.85C87.46 59.85 86.3 60.47 85.41 61.72C84.52 62.97 84.08 65.15 84.08 68.27C84.08 71.39 84.51 73.6 85.36 74.91C86.21 76.22 87.48 76.87 89.16 76.87C91.73 76.87 94.03 76.49 96.07 75.72L97.37 78.92C94.83 80.43 91.84 81.19 88.41 81.19C84.98 81.19 82.5 80.22 80.98 78.27C79.46 76.33 78.69 73.15 78.69 68.73C78.69 64.31 79.63 61.05 81.52 58.94C83.4 56.83 86.05 55.77 89.46 55.77C92.2 55.77 94.8 56.53 97.27 58.04C97.27 58.18 97.27 58.46 97.27 58.87C97.27 59.28 97.19 59.97 97.02 60.96C96.85 61.95 96.61 62.75 96.3 63.37H92.88C92.52 62.73 92.28 61.71 92.14 60.32Z" fill="#38200F"/>
<path d="M113.96 55.89L121.12 76.66C122.13 77.02 122.84 77.44 123.24 77.92L122.88 80.91H114.46L114.1 77.92C114.39 77.54 114.96 77.18 115.83 76.84L114.86 73.82H107.66L106.76 76.74C107.6 77.08 108.22 77.47 108.63 77.93L108.27 80.92H100.06L99.7 77.93C100.13 77.38 100.94 76.92 102.11 76.56L109.02 55.9H113.96V55.89ZM110.97 60.93C110.97 62.39 110.67 64.1 110.07 66.04L108.67 70.5H113.82L112.45 66.11C111.9 64.43 111.59 62.91 111.51 61.54L111.47 60.93H110.97Z" fill="#38200F"/>
<path d="M149.45 67.34C149.45 66.38 149.53 64.89 149.7 62.88L149.77 62.02L149.41 61.98C148.86 64.02 148.38 65.64 147.97 66.84L143.18 80.92H138.39L133.35 66.84C132.89 65.76 132.49 64.42 132.13 62.81L131.91 61.98L131.55 62.02C131.77 64.16 131.87 65.93 131.87 67.35V76.82C132.76 77.16 133.42 77.6 133.85 78.15L133.49 80.92H126.43L126.07 78.15C126.5 77.6 127.16 77.15 128.05 76.82V60.17C127.07 59.81 126.38 59.37 126 58.84L126.36 56.07H134.57L139.83 70.58C140.5 72.16 140.93 73.62 141.13 74.94L141.24 75.55H141.74C141.84 74.09 142.27 72.43 143.04 70.58L148.04 56.07H156.1L156.46 58.84C156.08 59.37 155.39 59.81 154.41 60.17V76.66C155.35 77.02 156.01 77.44 156.39 77.92L156.03 80.91H147.82L147.46 77.96C147.84 77.48 148.5 77.06 149.44 76.7V67.34H149.45Z" fill="#38200F"/>
<path d="M169.32 72.27H167.7V76.52C169.45 76.9 170.54 77.37 170.98 77.92L170.62 80.91H160.9L160.54 77.92C160.85 77.51 161.51 77.12 162.52 76.73V60.28C161.54 59.92 160.88 59.51 160.54 59.06L160.9 56.07H170.44C173.78 56.12 176.27 56.72 177.91 57.89C179.55 59.05 180.38 61.12 180.38 64.1C180.38 69.54 176.69 72.27 169.32 72.27ZM169.86 59.99H167.7V68.34H170.11C171.74 68.34 172.96 68.02 173.76 67.37C174.56 66.72 174.97 65.6 174.97 64C174.97 62.4 174.53 61.34 173.66 60.8C172.79 60.26 171.52 59.99 169.86 59.99Z" fill="#38200F"/>
<path d="M201.22 80.91H184.52L184.16 77.92C184.47 77.51 185.13 77.12 186.14 76.73V60.28C185.16 59.92 184.5 59.51 184.16 59.06L184.52 56.07H200.94V62.33L198.28 62.65C197.73 62.17 197.28 61.28 196.95 59.99H191.33V66.18H196.33C196.62 65.46 196.92 64.96 197.23 64.67L199.5 64.92V71.33L197.23 71.62C196.92 71.38 196.62 70.88 196.33 70.11H191.33V76.99H197.23C197.54 75.74 197.99 74.85 198.56 74.33L201.22 74.65V80.91Z" fill="#38200F"/>
<path d="M214.14 56.07L214.5 59.06C214.12 59.52 213.46 59.92 212.52 60.28V76.73C213.48 77.11 214.14 77.51 214.5 77.92L214.14 80.91H205.72L205.36 77.92C205.67 77.51 206.33 77.12 207.34 76.73V60.28C206.36 59.92 205.7 59.51 205.36 59.06L205.72 56.07H214.14Z" fill="#38200F"/>
<path d="M238.08 63.34C238.08 64.97 237.57 66.34 236.55 67.44C235.53 68.54 234.25 69.38 232.72 69.96C233.92 70.46 234.71 71.08 235.1 71.8L237.73 76.8C238.86 77.18 239.63 77.63 240.03 78.13L239.67 80.9H233.59L229.45 72.08C229.07 71.19 228.62 70.75 228.12 70.75H225.78V76.51C227.53 76.89 228.62 77.36 229.06 77.91L228.7 80.9H218.98L218.62 77.91C218.93 77.5 219.59 77.11 220.6 76.72V60.28C219.62 59.92 218.96 59.51 218.62 59.06L218.98 56.07H228.16C231.52 56.12 234.02 56.66 235.65 57.69C237.27 58.72 238.08 60.6 238.08 63.34ZM227.89 59.99H225.77V66.83H227.82C229.45 66.83 230.67 66.58 231.47 66.09C232.27 65.6 232.68 64.72 232.68 63.44C232.68 62.17 232.27 61.27 231.46 60.76C230.64 60.25 229.45 59.99 227.89 59.99Z" fill="#38200F"/>
<path d="M252.88 81.2C249.47 81.2 246.92 80.22 245.23 78.25C243.54 76.28 242.69 73.1 242.69 68.69C242.69 64.28 243.62 61.03 245.48 58.93C247.34 56.83 249.99 55.78 253.44 55.78C256.88 55.78 259.45 56.72 261.14 58.59C262.83 60.46 263.68 63.59 263.68 67.99C263.68 72.39 262.73 75.68 260.84 77.89C258.94 80.09 256.29 81.2 252.88 81.2ZM249.39 61.72C248.53 62.97 248.09 65.14 248.09 68.24C248.09 71.34 248.55 73.59 249.46 75.01C250.37 76.43 251.63 77.13 253.22 77.13C254.82 77.13 256.06 76.46 256.95 75.13C257.84 73.8 258.28 71.58 258.28 68.49C258.28 62.73 256.55 59.85 253.1 59.85C251.49 59.85 250.25 60.47 249.39 61.72Z" fill="#38200F"/>
<path d="M19.68 83.23C19.68 83.23 43.86 80.74 48.03 80.91C52.2 81.08 79.08 83.23 79.08 83.23L262.44 81.92C262.44 81.92 265.8 81.42 265.08 83.23C264.36 85.04 215.16 84.56 215.16 84.56L19.68 84.62C19.68 84.62 18.33 84.09 19.68 83.23Z" fill="#38200F"/>
<path d="M44.3 82.58C44.3 82.58 45.66 59.81 45.37 58.56C45.08 57.31 46.48 53.94 41.42 52.36C40.88 52.19 39.05 50.78 37 51.39C34.95 52 33.08 51.29 33.08 51.29L34.05 49.19C34.05 49.19 34.44 50.36 37.34 49.67C40.24 48.98 44.24 51.84 46.05 52.77C47.86 53.7 48.42 48.89 47.08 43.96C46.87 43.18 49.28 43.62 49.47 43.62C49.66 43.62 49.79 51.67 50.37 51.95C50.95 52.23 52.56 51.17 55.24 50.24C57.92 49.32 57.76 46.94 57.76 46.94L59.82 47.16C59.82 47.16 59.24 51.05 56.11 51.83C52.98 52.61 50.27 53.96 50.27 53.96C50.27 53.96 49.09 83.9 53.06 83.2C57.02 82.51 44.3 82.58 44.3 82.58Z" fill="#38200F"/>
<path d="M46.83 31.18C46.4 31.96 46.41 32.75 46.26 33.49C46.11 34.27 45.79 34.28 45.32 33.78C44.3 32.71 43.84 31.41 44.1 29.96C44.4 28.28 45.27 26.84 46.19 25.43C46.34 25.2 46.46 24.95 46.85 25.2C48.37 26.17 49.96 30.09 49.52 31.87C49.46 32.11 49.41 32.35 49.31 32.57C49.08 33.09 48.85 33.84 48.3 33.86C47.7 33.88 47.81 33.05 47.58 32.6C47.35 32.19 47.37 31.65 46.83 31.18Z" fill="#749D3E"/>
<path d="M42.96 42.36C42.92 40.94 42.52 39.92 41.39 39.04C40.18 38.1 39 37.39 37.58 36.87C37.01 36.67 37.69 37.52 37.79 38.68C37.89 39.84 37.69 39.53 37.7 41.94C37.72 44.36 39.42 44.4 39.87 44.49C40.32 44.58 41.68 44.08 42.19 43.75C42.7 43.42 42.97 42.66 42.96 42.36Z" fill="#7B9833"/>
<path d="M39.37 52.1C39.41 52.7 38.8 53.1 38.86 53.72C39.46 53.63 39.79 53.05 40.35 52.92C40.61 53.82 40.26 54.89 39.45 55.41C38.56 55.98 37.41 56.69 36.56 56.28C35.99 56 36.57 54.65 36.84 53.83C37.25 52.61 38.16 52.02 39.37 52.1Z" fill="#749D3E"/>
<path d="M30.26 43.48C29.06 44.88 27.69 45.16 25.93 44.34C25.06 43.93 23.67 43.53 23.67 42.73C23.66 41.92 25.05 41.51 25.91 41.06C27.16 40.41 28.42 40.39 29.63 41.17C29.83 41.3 30.08 41.44 30.06 41.72C30.04 42.04 29.71 41.99 29.51 42.09C29.09 42.3 28.53 42.21 28.18 42.7C28.77 43.2 29.6 42.98 30.26 43.48Z" fill="#749D3E"/>
<path d="M53.58 31.38C52.84 31.47 52.48 31.94 52.01 32.23C51.47 32.57 51.24 32.37 51.27 31.82C51.34 30.59 51.91 29.64 52.99 29.03C54.06 28.43 55.7 27.49 56.32 28.1C57.09 28.86 56.29 30.46 55.83 31.63C55.44 32.6 54.66 33.18 53.7 33.51C53.43 33.6 53.12 33.75 52.89 33.54C52.62 33.29 52.88 33.02 52.98 32.77C53.15 32.33 53.35 31.9 53.58 31.38Z" fill="#749D3E"/>
<path d="M54.6799 39.25C54.7599 38.52 55.3799 38.02 55.3899 37.07C54.6699 37.54 54.0899 37.92 53.4799 38.32C53.1699 36.8 53.6299 35.6 54.7799 34.88C55.7699 34.26 56.8899 34.01 57.9999 33.73C58.2299 33.67 58.4399 33.61 58.5399 33.98C58.9799 35.59 57.4199 38.63 55.8399 39.19C55.4799 39.32 55.1399 39.42 54.6799 39.25Z" fill="#749D3E"/>
<path d="M37.11 35.61C36.29 35.39 35.96 34.57 35.21 34.42C35.03 34.87 35.35 35.16 35.43 35.5C35.5 35.85 35.92 36.24 35.66 36.5C35.29 36.88 34.8 36.52 34.42 36.32C32.97 35.57 32.59 34.22 32.51 32.72C32.37 30.26 32.43 30.22 34.62 31.3C36.78 32.36 37.43 33.46 37.11 35.61Z" fill="#749D3E"/>
<path d="M35.72 40.06H33.34C33.8 40.88 34.76 40.92 35.12 41.62C33.92 42.47 32.58 42.46 31.4 41.54C30.43 40.79 28.94 39.65 29.23 38.84C29.6 37.84 31.39 37.95 32.63 37.92C34 37.9 34.93 38.55 35.72 40.06Z" fill="#749D3E"/>
<path d="M59.87 46.69C59.97 46.2 60.32 46.01 60.55 45.73C60.75 45.48 61.06 45.31 61.09 44.92C60.67 44.68 60.33 45.02 59.95 45.06C59.62 45.09 59.25 45.54 58.98 45.1C58.77 44.76 59.05 44.38 59.23 44.07C59.99 42.76 61.21 42.3 62.65 42.32C63.45 42.33 64.62 41.98 64.96 42.58C65.35 43.26 64.49 44.12 64.07 44.83C62.96 46.68 61.66 47.24 59.87 46.69Z" fill="#749D3E"/>
<path d="M42.78 36.42C41.97 36.28 41.66 35.42 40.86 35.26C40.78 36.05 41.39 36.62 41.41 37.34C40.07 37.46 38.9 36.62 38.46 35.19C38.14 34.16 38.11 33.1 38.14 32.03C38.15 31.69 38.16 31.29 38.66 31.48C40.14 32.06 41.72 32.52 42.55 34.05C42.95 34.79 43.07 35.58 42.78 36.42Z" fill="#749D3E"/>
<path d="M62.4 37.85C61.83 38.22 61.25 38.59 60.67 38.96C60.23 37.64 60.7 36.35 61.89 35.6C62.87 34.98 63.99 34.71 65.1 34.43C65.41 34.35 65.74 34.34 65.67 34.77C65.43 36.42 65.4 38.16 63.95 39.35C63.79 39.48 63.62 39.61 63.44 39.69C62.96 39.89 62.37 40.31 61.96 39.92C61.62 39.6 62.2 39.15 62.33 38.74C62.41 38.48 62.52 38.24 62.62 37.99C62.54 37.95 62.47 37.9 62.4 37.85Z" fill="#749D3E"/>
<path d="M66.63 48.93C64.89 50.94 63.78 51.32 62.24 50.4C62.41 49.89 63.09 49.99 63.4 49.43C62.89 49.38 62.45 49.34 61.99 49.29C62.72 47.64 64.28 47.52 66.63 48.93Z" fill="#749D3E"/>
<path d="M56.52 52.72C57.8 51.75 59.57 51.93 60.55 53.02C60.76 53.25 60.76 53.39 60.57 53.63C59.65 54.78 57.81 55 56.64 54.07C56.75 53.52 57.48 53.83 57.65 53.34C57.37 52.99 56.77 53.22 56.52 52.72Z" fill="#749D3E"/>
<path d="M27.93 48.47C28.57 48.76 29.21 49.04 29.84 49.33C30.16 49.47 30.63 49.54 30.64 49.93C30.66 50.38 30.18 50.56 29.83 50.72C28.43 51.39 26.97 51.47 25.58 50.76C24.1 50.01 22.88 48.88 21.72 47.69C21.31 47.27 21.24 46.97 21.84 46.7C23.34 46.02 24.85 45.32 26.51 45.14C28.07 44.97 29.4 45.54 30.51 46.62C30.75 46.85 31.11 47.1 30.95 47.51C30.81 47.86 30.42 47.77 30.12 47.81C29.39 47.91 28.65 47.98 27.92 48.06C27.93 48.2 27.93 48.33 27.93 48.47Z" fill="#749D3E"/>
<path d="M51.73 47.96L52.87 45.62C51.85 45.68 51.36 46.6 50.49 46.62C50.23 45.03 50.87 43.73 52.34 43.01C53.54 42.42 55.36 41.49 56.02 42.18C56.83 43.02 55.86 44.72 55.3 45.95C54.68 47.3 53.59 47.9 51.73 47.96Z" fill="#749D3E"/>
<path d="M64.56 32.75C62.66 34.94 61.45 35.35 59.77 34.35C59.95 33.79 60.7 33.9 61.03 33.29C60.47 33.23 59.99 33.19 59.49 33.14C60.29 31.35 61.99 31.22 64.56 32.75Z" fill="#749D3E"/>
<path d="M51.12 36.91C52.81 39.27 52.93 40.54 51.57 41.94C51.07 41.63 51.35 40.93 50.84 40.47C50.66 41 50.5 41.46 50.33 41.93C48.77 40.73 49.03 39.05 51.12 36.91Z" fill="#749D3E"/>
<path d="M43.15 44.34C45.34 46.24 45.75 47.45 44.75 49.13C44.19 48.95 44.3 48.2 43.69 47.87C43.63 48.43 43.59 48.91 43.54 49.41C41.74 48.61 41.61 46.91 43.15 44.34Z" fill="#749D3E"/>
<path d="M45.33 34.12C46.79 36.63 46.78 37.9 45.29 39.17C44.82 38.81 45.17 38.14 44.7 37.64C44.47 38.15 44.27 38.59 44.06 39.05C42.62 37.71 43.05 36.06 45.33 34.12Z" fill="#749D3E"/>
<path d="M70.41 45.8C68.51 47.99 67.3 48.4 65.62 47.4C65.8 46.84 66.55 46.95 66.88 46.34C66.32 46.28 65.84 46.24 65.34 46.19C66.15 44.4 67.85 44.26 70.41 45.8Z" fill="#749D3E"/>
<path d="M34.28 42.8C36.43 43.5 37.09 44.25 36.89 45.76C36.43 45.8 36.29 45.23 35.75 45.17C35.88 45.59 35.99 45.95 36.11 46.32C34.57 46.3 33.95 45.11 34.28 42.8Z" fill="#749D3E"/>
<path d="M60.23 38.9C60.79 41.09 60.52 42.05 59.13 42.69C58.85 42.32 59.26 41.89 59.01 41.41C58.73 41.74 58.48 42.03 58.23 42.33C57.43 41.01 58.1 39.86 60.23 38.9Z" fill="#749D3E"/>
<path d="M58.02 32.22L58.83 30.55C58.1 30.59 57.75 31.25 57.13 31.27C56.94 30.14 57.4 29.21 58.45 28.69C59.31 28.27 60.61 27.61 61.08 28.09C61.66 28.69 60.97 29.91 60.56 30.79C60.13 31.75 59.35 32.18 58.02 32.22Z" fill="#749D3E"/>
<path d="M43.04 30.54L41.2 28.71C40.92 29.69 41.64 30.46 41.38 31.28C39.79 31.01 38.77 29.98 38.57 28.36C38.4 27.03 38.12 25.01 38.97 24.61C40.03 24.12 41.33 25.58 42.3 26.52C43.37 27.54 43.59 28.76 43.04 30.54Z" fill="#749D3E"/>
<path d="M50.35 33.28C50.91 35.47 50.64 36.43 49.25 37.07C48.97 36.7 49.38 36.27 49.13 35.79C48.85 36.12 48.6 36.41 48.35 36.71C47.56 35.4 48.23 34.25 50.35 33.28Z" fill="#749D3E"/>
<path d="M47.56 38.28C47.97 39.89 47.77 40.59 46.75 41.05C46.55 40.78 46.84 40.47 46.66 40.12C46.45 40.36 46.27 40.57 46.09 40.79C45.51 39.82 46 38.98 47.56 38.28Z" fill="#749D3E"/>
<path d="M38.47 45.59C39.82 46.79 40.07 47.54 39.43 48.58C39.08 48.46 39.16 48 38.78 47.79C38.74 48.14 38.71 48.44 38.67 48.75C37.57 48.24 37.49 47.18 38.47 45.59Z" fill="#749D3E"/>
<path d="M52.93 24.83C53.49 27.02 53.22 27.98 51.83 28.62C51.55 28.25 51.96 27.82 51.71 27.34C51.43 27.67 51.18 27.96 50.93 28.26C50.13 26.94 50.8 25.79 52.93 24.83Z" fill="#749D3E"/>
<path d="M28.7 33.19C31.03 33.93 31.75 34.73 31.53 36.36C31.04 36.4 30.87 35.79 30.3 35.74C30.44 36.19 30.57 36.58 30.69 36.98C29.04 36.95 28.37 35.68 28.7 33.19Z" fill="#749D3E"/>
<path d="M58.93 23.2C59.49 25.39 59.22 26.35 57.83 26.99C57.55 26.62 57.96 26.19 57.71 25.71C57.43 26.04 57.18 26.33 56.93 26.63C56.13 25.32 56.8 24.17 58.93 23.2Z" fill="#749D3E"/>
<path d="M65.78 40.4C67.06 39.43 68.83 39.61 69.81 40.7C70.02 40.93 70.02 41.07 69.83 41.31C68.91 42.46 67.07 42.68 65.9 41.75C66.01 41.2 66.74 41.51 66.91 41.02C66.63 40.67 66.04 40.9 65.78 40.4Z" fill="#749D3E"/>
<path d="M68.32 28.96C66.42 31.15 65.21 31.56 63.53 30.56C63.71 30 64.46 30.11 64.79 29.5C64.23 29.44 63.75 29.4 63.25 29.35C64.05 27.56 65.75 27.42 68.32 28.96Z" fill="#749D3E"/>
<path d="M69.35 33.79C69.91 35.98 69.64 36.94 68.25 37.58C67.97 37.21 68.38 36.78 68.13 36.3C67.84 36.63 67.6 36.92 67.35 37.22C66.55 35.91 67.22 34.76 69.35 33.79Z" fill="#749D3E"/>
<path d="M43.5 19.44C45.69 21.34 46.1 22.55 45.1 24.23C44.54 24.05 44.65 23.3 44.04 22.97C43.98 23.53 43.94 24.01 43.89 24.51C42.09 23.71 41.96 22.01 43.5 19.44Z" fill="#749D3E"/>
<path d="M41.37 44.04C40.94 43.23 40.61 42.4 40.25 41.59C40.08 41.18 39.89 40.78 39.71 40.38C39.52 39.98 39.31 39.6 39.04 39.23C39.46 39.45 39.77 39.81 40.04 40.18C40.32 40.55 40.53 40.97 40.71 41.38C41.06 42.23 41.31 43.12 41.37 44.04Z" fill="white"/>
<path d="M40.32 39.18C40.33 39.72 40.23 40.22 40.1 40.71L40.04 40.93L39.8 40.88C39.48 40.81 39.18 40.71 38.87 40.59C38.57 40.46 38.27 40.33 37.99 40.14C38.33 40.11 38.66 40.15 38.98 40.19C39.3 40.24 39.62 40.31 39.93 40.41L39.63 40.57C39.81 40.08 40.01 39.61 40.32 39.18Z" fill="white"/>
<path d="M41.63 40.62C41.55 41.44 41.34 42.21 41.11 42.98L41.04 43.21L40.8 43.14C40.36 43 39.92 42.85 39.49 42.67C39.06 42.48 38.63 42.3 38.23 42.05C38.71 42.09 39.16 42.19 39.62 42.29C40.07 42.4 40.52 42.53 40.96 42.68L40.65 42.84C40.9 42.07 41.2 41.32 41.63 40.62Z" fill="white"/>
</svg>
